<svg width="26" height="24" viewBox="0 0 26 24" fill="none" xmlns="http://www.w3.org/2000/svg">
<path d="M18.3341 4.95158C18.3341 4.74947 17.1526 3.5621 15.6963 2.29894C14.2401 1.03579 12.9487 0 12.8388 0C12.7289 0 12.564 0.732632 12.4541 1.64211C12.0145 5.60842 9.7614 10.7116 6.84889 14.3242C5.96964 15.4105 4.01881 17.4063 2.53508 18.7453C1.05135 20.1095 -0.102659 21.2211 0.0072465 21.2211C0.474347 21.2211 5.42011 18.8211 7.20608 17.7347C9.81635 16.1432 13.4982 12.7074 15.3666 10.1053C17.0427 7.75579 18.3341 5.53263 18.3341 4.95158Z" fill="#0054B0"/>
<path d="M23.0051 11.4189C23.0051 11.0147 21.4939 8.61474 20.175 6.87158C19.7079 6.29053 19.2683 5.81053 19.1858 5.81053C19.1034 5.81053 18.444 6.87158 17.7296 8.16C14.7346 13.5158 9.84383 17.7347 3.02966 20.7663C0.144629 22.0547 0.336963 21.9537 0.529298 22.1053C0.83154 22.4084 6.21693 21.4232 8.99205 20.5642C11.8221 19.7053 15.2292 18.0884 17.3724 16.5979C19.1034 15.4105 23.0051 11.7979 23.0051 11.4189Z" fill="#0054B0"/>
<path d="M25.5054 17.1789C25.2032 16.2695 24.7086 14.88 24.3789 14.0968C23.8568 12.7832 23.2798 12 23.2798 12.5558C23.2798 12.9095 19.4606 16.2947 17.7845 17.4568C14.35 19.8063 9.01953 21.7011 3.27695 22.6358C1.73826 22.8884 0.556775 23.1663 0.666681 23.2674C1.07883 23.5958 5.17282 24 8.14028 24C11.41 24 14.7346 23.5453 17.5098 22.7368C19.4606 22.1558 24.4338 19.9832 25.3955 19.2505L26 18.8211L25.5054 17.1789Z" fill="#0054B0"/>
</svg>
